<svg height="64" preserveAspectRatio="none" viewBox="0 0 64 64" width="64" xmlns="http://www.w3.org/2000/svg" xmlns:xlink="http://www.w3.org/1999/xlink"><linearGradient id="a"><stop offset="0" stop-color="#c26b5c"/><stop offset="1" stop-color="#df5c21" stop-opacity="0"/></linearGradient><radialGradient id="b" cx="10.592773" cy="35.005859" gradientUnits="userSpaceOnUse" r="7.677734" xlink:href="#a"/><radialGradient id="c" cx="53.408203" cy="35.005859" gradientUnits="userSpaceOnUse" r="7.677734" xlink:href="#a"/><path d="m52.8378906 10.7783203c-.1611328-.0087891-.3046875-.0058594-.4648438-.0136719-2.6904297.5439453-5.5644531.9775391-8.5683594 1.2983398-3.3496093 2.4155274-7.4160155 3.8359376-11.8046874 3.8359376s-8.4555664-1.4199219-11.8037109-3.8359375c-3.0043945-.3203125-5.8798828-.7539063-8.5703125-1.2978516-.1582031.0073242-.3022461.0043945-.4638672.0131836-1.6396484 9.8369141-10.0327148 17.144043-9.4042969 27.5585938.8012695 13.2685547 12.7407227 16.4375 19.4033203 14.2255859 3.7871094-1.2587891 6.5180664-3.0546875 8.3710938-6.0273438 0 0 .0097656-.0097656.0263672-.0244141.8017578.0654298 1.6162109.100586 2.4414062.100586.824707 0 1.6386719-.0351563 2.4414063-.1005859.0166016.0146484.0253906.0244141.0253906.0244141 1.8554688 2.9726563 4.5859375 4.7685547 8.3720703 6.0273438 6.6630859 2.2119141 18.6025391-.9570313 19.4033203-14.2255859.6289063-10.4145509-7.7646484-17.7216798-9.4042969-27.5585939z" fill="#efb075"/><circle cx="10.592529" cy="35.004883" fill="url(#b)" r="7.677979"/><path d="m9.5209961 38.4003906c-1.4770508 0-2.6782227-1.2021484-2.6782227-2.6787109 0-.2626953.2128906-.4765625.4760742-.4765625s.4760742.2138672.4760742.4765625c0 .9521484.7744141 1.7255859 1.7260742 1.7255859s1.7260742-.7734375 1.7260742-1.7255859c0-.2626953.2128906-.4765625.4760742-.4765625s.4760742.2138672.4760742.4765625c.0000002 1.4765625-1.2011717 2.6787109-2.6782225 2.6787109z" fill="#a3390f"/><circle cx="7.319092" cy="31.960938" fill="#fff" r=".981201"/><path d="m10.175293 36.1982422h-1.3081055c-.2631836 0-.4760742-.2138672-.4760742-.4765625s.2128906-.4765625.4760742-.4765625h1.3081055c.2631836 0 .4760742.2138672.4760742.4765625s-.2128906.4765625-.4760742.4765625z" fill="#a3390f"/><circle cx="53.407715" cy="35.004883" fill="url(#c)" r="7.678223"/><path d="m54.4794922 38.4003906c-1.4765625 0-2.6787109-1.2021484-2.6787109-2.6787109 0-.2626953.2138672-.4765625.4765625-.4765625s.4765625.2138672.4765625.4765625c0 .9521484.7734375 1.7255859 1.7255859 1.7255859s1.7255859-.7734375 1.7255859-1.7255859c0-.2626953.2138672-.4765625.4765625-.4765625s.4765625.2138672.4765625.4765625c0 1.4765625-1.2021484 2.6787109-2.6787109 2.6787109z" fill="#a3390f"/><circle cx="50.061035" cy="31.960938" fill="#fff" r=".980957"/><path d="m55.1328125 36.1982422h-1.3085938c-.2626953 0-.4765625-.2138672-.4765625-.4765625s.2138672-.4765625.4765625-.4765625h1.3085938c.2626953 0 .4765625.2138672.4765625.4765625s-.2138672.4765625-.4765625.4765625z" fill="#a3390f"/><path d="m5.3349609 46.6113281s5.9516602 6.0712891 14.7607422 2.6191406 8.8227539-14.8457031 10.065918-11.3066406c1.2426758 3.5380859 1.9033203 13.2744141-9.9736328 14.9091797-11.8769531 1.6357422-14.8530274-6.2216797-14.8530274-6.2216797z" fill="#bc8058"/><path d="m61.4990234 42.6835938s-5.3046875 16.1669922-22.8779297 7.9638672c.0000001-.0000001 14.9990235 1.9160156 22.8779297-7.9638672" fill="#bc8058"/><path d="m16.9013672 54.1748047c-3.2250977 0-6.5605469-.9707031-9.2631836-2.7998047-2.8759766-1.9472656-6.3959961-5.7792969-6.8310547-12.9804688-.3730469-6.1855468 2.2998047-11.3203124 4.8847656-16.2861328 1.8920898-3.6342773 3.8486328-7.3925781 4.5307617-11.4868164.0864258-.5185547.5712891-.8701172 1.0961914-.7827148.5185547.0864258.8691406.5771484.7827148 1.0961914-.7324219 4.3920898-2.7597656 8.2866211-4.7202148 12.0527344-2.5786133 4.9536133-5.0146484 9.6323242-4.6728516 15.2915039.3881836 6.4277344 3.4755859 9.8115234 5.9970703 11.5175781 4.0390625 2.7333984 9.0161133 2.90625 12.1552734 1.8613281 3.7993164-1.2626953 6.2246094-2.9980469 7.8632813-5.6269531.2783203-.4462891.8652344-.5839844 1.3120117-.3046875.4462891.2783203.5825195.8662109.3041992 1.3125-1.8901367 3.0322266-4.628418 5.0146484-8.8789063 6.4267578-1.4355467.4765625-2.9848631.7089844-4.5600584.7089844z" fill="#72402d"/><path d="m47.0986328 54.1748047c-1.5751953 0-3.1240234-.2314453-4.5595703-.7080078-4.2490234-1.4130859-6.9873047-3.3955078-8.8798828-6.4277344-.2783203-.4462891-.1425781-1.0332031.3037109-1.3115234.4443359-.2792969 1.0322266-.1435547 1.3115234.3037109 1.6416016 2.6289063 4.0673828 4.3652344 7.8652344 5.6279297 3.1376953 1.0410156 8.1171875.8710938 12.1552734-1.8623047 2.5214844-1.7060547 5.6083984-5.0898438 5.9970703-11.5175781.3417969-5.6591797-2.0947266-10.3378906-4.6738281-15.2915039-1.9599609-3.7661133-3.9873047-7.6606445-4.7197266-12.0527344-.0859375-.519043.2636719-1.0097656.7832031-1.0961914.5146484-.0874023 1.0087891.2641602 1.0957031.7827148.6826172 4.0942383 2.6386719 7.8520508 4.5302734 11.4868164 2.5859375 4.965332 5.2587891 10.1005859 4.8847656 16.2861328-.4345703 7.2011719-3.9541016 11.0332031-6.8300781 12.9794922-2.7021482 1.8291016-6.0390623 2.8007813-9.2636717 2.8007813z" fill="#72402d"/><path d="m32 17.9228516c-3.1757813 0-6.1640625-1.1762695-8.7817383-3.2446289-.4375.440918-.4189453.9472656.2490234 1.3398438 8.809082 5.1191406 8.0947266 14.9604492 8.0947266 14.9604492.1391602.09375.2714844.1308594.3999023.1416016v.0117188c.0117188 0 .0263672-.0048828.0380859-.0058594.0117188.0009766.0253906.0058594.0380859.0058594v-.0117188c.128418-.0107422.2607422-.0478516.3999023-.1416016 0 0-.7143555-9.8413086 8.0942383-14.9604492.6689453-.3925781.6884766-.8984375.25-1.3398438-2.6181639 2.0683593-5.6074217 3.2446289-8.7822264 3.2446289z" fill="#bc8058"/></svg>